# xmcd CD database file
#
# Track frame offsets:
#	150
#	23732
#	46379
#	66702
#	88384
#	103486
#	123141
#	144553
#	169039
#	188157
#	212264
#
# Disc length: 3051 seconds
#
# Revision: 2
# Processed by: cddbd v1.4PL0 Copyright (c) Steve Scherf et al.
# Submitted via: CDex 1.40Beta8
#
DISCID=a00be90b
DTITLE=LP - Heart-Shaped Scar
DYEAR=2001
DGENRE=Blues
TTITLE0=Perfect
TTITLE1=Love Somebody
TTITLE2=Heart Shaped Scar
TTITLE3=Coming Home
TTITLE4=Long Time
TTITLE5=Kiss It All Goodbye
TTITLE6=Shut You Out
TTITLE7=Follow Me Down
TTITLE8=Insane
TTITLE9=When I'm Not With You
TTITLE10=Greenbriar
EXTD=YEAR: 2001 ID3G: 0
EXTT0=
EXTT1=
EXTT2=
EXTT3=
EXTT4=
EXTT5=
EXTT6=
EXTT7=
EXTT8=
EXTT9=
EXTT10=
PLAYORDER=
